<svg width="24" height="24" viewBox="0 0 24 24" fill="none" xmlns="http://www.w3.org/2000/svg">
<g clip-path="url(#clip0_803_2819)">
<path d="M24 12.264L22.0351 5.15625H0V17.2348H2.52484C2.83392 18.1683 3.71429 18.8438 4.74994 18.8438C5.78577 18.8438 6.66595 18.1683 6.97504 17.2348H17.025C17.334 18.1683 18.2142 18.8438 19.2501 18.8438C20.2857 18.8438 21.1661 18.1683 21.4752 17.2348H24V12.264ZM19.2501 17.4375C18.7332 17.4375 18.3126 17.0169 18.3126 16.5C18.3126 15.9831 18.7332 15.5625 19.2501 15.5625C19.767 15.5625 20.1876 15.9831 20.1876 16.5C20.1876 17.0169 19.767 17.4375 19.2501 17.4375ZM19.2501 14.1562C18.191 14.1562 17.2941 14.8625 17.0048 15.8286H14.41V10.5624H17.9225C18.3582 11.7515 19.5013 12.5625 20.7838 12.5625H22.5938V15.8286H21.4953C21.2058 14.8625 20.3091 14.1562 19.2501 14.1562ZM6.99518 15.8286C6.70587 14.8625 5.80902 14.1562 4.74994 14.1562C3.69086 14.1562 2.79419 14.8625 2.5047 15.8286H1.40625V10.5624H9.58997V15.8286H6.99518ZM4.74994 17.4375C4.23303 17.4375 3.81244 17.0169 3.81244 16.5C3.81244 15.9831 4.23303 15.5625 4.74994 15.5625C5.26685 15.5625 5.68744 15.9831 5.68744 16.5C5.68744 17.0169 5.26685 17.4375 4.74994 17.4375ZM20.9648 6.5625L22.2349 11.1562H20.7838C20.0486 11.1562 19.3982 10.6613 19.2025 9.9527L18.2651 6.5625H20.9648ZM16.8062 6.5625L17.5232 9.15619H1.40625V6.5625H16.8062ZM13.0038 15.8286H10.9962V10.5624H13.0038V15.8286Z" fill="#519DF0"/>
</g>
<defs>
<clipPath id="clip0_803_2819">
<rect width="24" height="24" fill="white"/>
</clipPath>
</defs>
</svg>
