<svg width="24" height="24" viewBox="0 0 24 24" fill="none" xmlns="http://www.w3.org/2000/svg">
<path d="M13.205 9.05322C10.9442 9.05322 9.10498 10.8925 9.10498 13.1532C9.10498 15.414 10.9442 17.2532 13.205 17.2532C15.4657 17.2532 17.305 15.414 17.305 13.1532C17.305 10.8925 15.4657 9.05322 13.205 9.05322ZM13.205 15.6962C11.8027 15.6962 10.6619 14.5555 10.6619 13.1532C10.6619 11.751 11.8027 10.6102 13.205 10.6102C14.6072 10.6102 15.748 11.751 15.748 13.1532C15.748 14.5555 14.6072 15.6962 13.205 15.6962Z" fill="#519DF0"/>
<path d="M13.8798 2.43187V0H13.1013C9.60192 0 6.31191 1.36281 3.83738 3.83733C1.36286 6.31186 0 9.60192 0 13.1013V13.8798H2.43187C2.7814 19.5189 7.47942 24 13.2051 24C19.1574 24 24 19.1574 24 13.2051C24 7.47942 19.5189 2.7814 13.8798 2.43187ZM4.93831 4.93831C6.93438 2.94229 9.53227 1.76715 12.3228 1.58265V4.52099C8.1923 4.89269 4.89269 8.1923 4.52099 12.3228H1.5826C1.76715 9.53222 2.94229 6.93433 4.93831 4.93831ZM13.2051 22.443C8.33819 22.443 4.33857 18.6598 3.99189 13.8798H6.04308V13.1013C6.04308 9.20936 9.20941 6.04308 13.1013 6.04308H13.8798V3.99189C18.6598 4.33857 22.443 8.33819 22.443 13.2051C22.443 18.2989 18.2989 22.443 13.2051 22.443Z" fill="#519DF0"/>
<path d="M11.3369 19.1735H12.8939V20.7304H11.3369V19.1735Z" fill="#519DF0"/>
<path d="M6.56201 15.748H8.11897V17.305H6.56201V15.748Z" fill="#519DF0"/>
<path d="M17.2012 17.2012H18.7581V18.7581H17.2012V17.2012Z" fill="#519DF0"/>
<path d="M19.3291 11.8557H20.8861V13.4127H19.3291V11.8557Z" fill="#519DF0"/>
<path d="M12.4268 12.3746H13.9837V13.9316H12.4268V12.3746Z" fill="#519DF0"/>
<path d="M16.1631 6.87354H17.72V8.4305H16.1631V6.87354Z" fill="#519DF0"/>
</svg>
