<svg width="3" height="4" viewBox="0 0 3 4" fill="none" xmlns="http://www.w3.org/2000/svg">
<path d="M0.60868 3.725C0.569562 3.76444 0.516313 3.78662 0.460764 3.78662C0.405214 3.78662 0.351965 3.76444 0.312847 3.725L0.229514 3.64166C0.188823 3.60246 0.166194 3.54816 0.167014 3.49166L0.167014 0.50833C0.166194 0.451836 0.188823 0.397528 0.229514 0.35833L0.312847 0.274996C0.351965 0.235556 0.405214 0.213372 0.460763 0.213372C0.516313 0.213372 0.569562 0.235556 0.60868 0.274996L2.18785 1.85416C2.22813 1.89197 2.25098 1.94475 2.25098 2C2.25098 2.05524 2.22813 2.10802 2.18785 2.14583L0.60868 3.725Z" fill="#252525"/>
</svg>
