<svg width="100" height="250" viewBox="0 0 100 250" fill="none" xmlns="http://www.w3.org/2000/svg">
<path fill-rule="evenodd" clip-rule="evenodd" d="M4.39618 4.44445L4.39619 245.556C4.39619 246.783 5.3868 247.778 6.60878 247.778L93.7731 247.778C94.9951 247.778 95.9857 246.783 95.9857 245.556L95.9857 4.44444C95.9857 3.21715 94.9951 2.22222 93.7731 2.22222L6.60877 2.22223C5.3868 2.22223 4.39618 3.21715 4.39618 4.44445ZM2.1836 245.556C2.1836 248.01 4.16482 250 6.60878 250L93.7731 250C96.2171 250 98.1983 248.01 98.1983 245.556L98.1983 4.44444C98.1983 1.98985 96.2171 1.78963e-08 93.7731 1.74312e-08L6.60877 3.06064e-06C4.16481 3.16747e-06 2.18359 1.98985 2.18359 4.44445L2.1836 245.556Z" fill="#E2E2E2"/>
<path fill-rule="evenodd" clip-rule="evenodd" d="M10.5099 15.966L10.51 239.358C10.51 240.585 11.5006 241.58 12.7225 241.58L87.543 241.58C88.765 241.58 89.7556 240.585 89.7556 239.358L89.7556 15.966C89.7556 14.7387 88.765 13.7438 87.543 13.7438L12.7225 13.7438C11.5006 13.7438 10.5099 14.7387 10.5099 15.966ZM8.29736 239.358C8.29736 241.812 10.2786 243.802 12.7225 243.802L87.543 243.802C89.9869 243.802 91.9682 241.812 91.9682 239.358L91.9682 15.966C91.9682 13.5114 89.9869 11.5215 87.543 11.5215L12.7225 11.5215C10.2786 11.5215 8.29735 13.5114 8.29735 15.966L8.29736 239.358Z" fill="#E2E2E2"/>
<path fill-rule="evenodd" clip-rule="evenodd" d="M21.8639 26.6668L21.864 228.215C21.864 229.443 22.8546 230.438 24.0765 230.438L76.0724 230.438C77.2944 230.438 78.285 229.443 78.285 228.215L78.285 26.6668C78.285 25.4395 77.2944 24.4445 76.0724 24.4445L24.0765 24.4445C22.8546 24.4445 21.8639 25.4395 21.8639 26.6668ZM19.6514 228.215C19.6514 230.67 21.6326 232.66 24.0765 232.66L76.0724 232.66C78.5163 232.66 80.4976 230.67 80.4976 228.215L80.4975 26.6668C80.4975 24.2122 78.5163 22.2223 76.0724 22.2223L24.0765 22.2223C21.6326 22.2223 19.6514 24.2122 19.6514 26.6668L19.6514 228.215Z" fill="#E2E2E2"/>
<path fill-rule="evenodd" clip-rule="evenodd" d="M34.965 186.667L34.965 208.89C34.965 210.117 35.9556 211.112 37.1776 211.112L63.7287 211.112C64.9507 211.112 65.9413 210.117 65.9413 208.89L65.9413 186.667C65.9413 185.44 64.9507 184.445 63.7287 184.445L37.1776 184.445C35.9556 184.445 34.965 185.44 34.965 186.667ZM32.7524 208.89C32.7524 211.344 34.7337 213.334 37.1776 213.334L63.7287 213.334C66.1726 213.334 68.1539 211.344 68.1539 208.89L68.1539 186.667C68.1539 184.213 66.1726 182.223 63.7287 182.223L37.1776 182.223C34.7337 182.223 32.7524 184.213 32.7524 186.667L32.7524 208.89Z" fill="#E2E2E2"/>
<path fill-rule="evenodd" clip-rule="evenodd" d="M34.965 118.89L34.965 141.112C34.965 142.339 35.9556 143.334 37.1776 143.334L63.7287 143.334C64.9507 143.334 65.9413 142.339 65.9413 141.112L65.9413 118.89C65.9413 117.662 64.9507 116.667 63.7287 116.667L37.1776 116.667C35.9556 116.667 34.965 117.662 34.965 118.89ZM32.7524 141.112C32.7524 143.566 34.7337 145.556 37.1776 145.556L63.7287 145.556C66.1726 145.556 68.1539 143.566 68.1539 141.112L68.1539 118.89C68.1539 116.435 66.1726 114.445 63.7287 114.445L37.1776 114.445C34.7337 114.445 32.7524 116.435 32.7524 118.89L32.7524 141.112Z" fill="#E2E2E2"/>
<path fill-rule="evenodd" clip-rule="evenodd" d="M34.965 51.1119L34.965 73.3341C34.965 74.5614 35.9556 75.5563 37.1776 75.5563L63.7287 75.5563C64.9507 75.5563 65.9413 74.5614 65.9413 73.3341L65.9413 51.1119C65.9413 49.8846 64.9507 48.8897 63.7287 48.8897L37.1776 48.8897C35.9556 48.8897 34.965 49.8846 34.965 51.1119ZM32.7524 73.3341C32.7524 75.7887 34.7337 77.7786 37.1776 77.7786L63.7287 77.7786C66.1726 77.7786 68.1539 75.7887 68.1539 73.3341L68.1539 51.1119C68.1539 48.6573 66.1726 46.6674 63.7287 46.6674L37.1776 46.6674C34.7337 46.6674 32.7524 48.6573 32.7524 51.1119L32.7524 73.3341Z" fill="#E2E2E2"/>
<path fill-rule="evenodd" clip-rule="evenodd" d="M20.0303 6.66724L2.32959 6.66724L2.32959 4.44501L20.0303 4.44501C22.7299 4.44501 24.0375 3.97148 24.69 3.39103C25.2938 2.85387 25.5618 2.01752 25.5618 0.556124L27.7744 0.556124C27.7744 2.20584 27.4892 3.86949 26.157 5.05456C24.8735 6.19632 22.8622 6.66724 20.0303 6.66724Z" fill="#E2E2E2"/>
<path fill-rule="evenodd" clip-rule="evenodd" d="M78.5146 6.31885L96.2153 6.31885L96.2153 4.09663L78.5146 4.09663C75.8151 4.09663 74.5075 3.6231 73.8549 3.04264C73.2511 2.50548 72.9831 1.66914 72.9831 0.207737L70.7706 0.207737C70.7706 1.85745 71.0557 3.52111 72.3879 4.70617C73.6714 5.84793 75.6827 6.31885 78.5146 6.31885Z" fill="#E2E2E2"/>
<path d="M0.000488281 26.1315C0.000488281 25.0269 0.895919 24.1315 2.00049 24.1315L2.21308 24.1315L2.21308 50.7981L2.00049 50.7981C0.895919 50.7981 0.000488281 49.9027 0.000488281 48.7981L0.000488281 26.1315Z" fill="#E2E2E2"/>
<path d="M0 191.189C0 190.085 0.89543 189.189 2 189.189L2.21259 189.189L2.21259 215.856L2 215.856C0.895431 215.856 -2.25232e-10 214.96 -2.15579e-10 213.856L0 191.189Z" fill="#E2E2E2"/>
<path d="M100 26.2029C100 25.0983 99.1046 24.2029 98 24.2029L97.7874 24.2029L97.7874 50.8695L98 50.8695C99.1046 50.8695 100 49.9741 100 48.8695L100 26.2029Z" fill="#E2E2E2"/>
<path d="M100 191.17C100 190.065 99.1046 189.17 98 189.17L97.7874 189.17L97.7874 215.837L98 215.837C99.1046 215.837 100 214.941 100 213.837L100 191.17Z" fill="#E2E2E2"/>
<path fill-rule="evenodd" clip-rule="evenodd" d="M11.4382 14.4937C11.1585 14.3311 10.8869 14.1733 10.6265 14.0169L11.714 12.5482C11.943 12.6857 12.1926 12.8302 12.4581 12.984C14.0063 13.8805 16.0994 15.0926 17.8579 17.0703C19.9514 19.4247 21.7361 22.8118 21.7361 27.9922L19.5893 27.9922C19.5893 23.1701 18.1142 20.183 16.3274 18.1735C14.7857 16.4396 12.9873 15.3942 11.4382 14.4937Z" fill="#E2E2E2"/>
<path fill-rule="evenodd" clip-rule="evenodd" d="M90.5223 15.1506C90.8019 14.988 91.0735 14.8301 91.334 14.6738L90.2465 13.2051C90.0174 13.3426 89.7679 13.4871 89.5023 13.6409C87.9541 14.5374 85.861 15.7495 84.1025 17.7272C82.0091 20.0816 78.275 23.4687 78.275 28.6491L80.4218 28.6491C80.4218 23.827 83.8462 20.8398 85.633 18.8303C87.1747 17.0965 88.9731 16.0511 90.5223 15.1506Z" fill="#E2E2E2"/>
</svg>
