<svg width="12" height="9" viewBox="0 0 12 9" fill="none" xmlns="http://www.w3.org/2000/svg">
<path d="M11.2334 1.83333L4.16673 8.9C4.10414 8.9631 4.01894 8.9986 3.93006 8.9986C3.84119 8.9986 3.75599 8.9631 3.6934 8.9L0.100064 5.30666C0.0369601 5.24407 0.00146484 5.15888 0.00146484 5.07C0.00146484 4.98112 0.0369601 4.89592 0.100064 4.83333L0.566731 4.36666C0.62932 4.30356 0.714518 4.26806 0.803398 4.26806C0.892277 4.26806 0.977475 4.30356 1.04006 4.36666L3.92673 7.25333L10.2934 0.886663C10.4253 0.758808 10.6349 0.758808 10.7667 0.886663L11.2334 1.36C11.2965 1.42259 11.332 1.50778 11.332 1.59666C11.332 1.68554 11.2965 1.77074 11.2334 1.83333Z" fill="#519DF0"/>
</svg>
