<svg width="20" height="20" viewBox="0 0 20 20" fill="none" xmlns="http://www.w3.org/2000/svg">
<path fill-rule="evenodd" clip-rule="evenodd" d="M0 10.0001C0 4.47727 4.47715 0.00012207 10 0.00012207C12.6522 0.00012207 15.1957 1.05369 17.0711 2.92905C18.9464 4.80442 20 7.34796 20 10.0001C20 15.523 15.5228 20.0001 10 20.0001C4.47715 20.0001 0 15.523 0 10.0001ZM8.72998 13.35L14.35 7.73003C14.5341 7.53688 14.5341 7.23318 14.35 7.04003L13.82 6.51003C13.6256 6.31946 13.3144 6.31946 13.12 6.51003L8.37998 11.25L6.87998 9.76003C6.78925 9.66336 6.66256 9.60851 6.52998 9.60851C6.39739 9.60851 6.27071 9.66336 6.17998 9.76003L5.64998 10.29C5.55532 10.3839 5.50208 10.5117 5.50208 10.645C5.50208 10.7784 5.55532 10.9061 5.64998 11L8.02998 13.35C8.12071 13.4467 8.24739 13.5016 8.37998 13.5016C8.51256 13.5016 8.63925 13.4467 8.72998 13.35Z" fill="#6ADC73"/>
</svg>
