<svg width="20" height="20" viewBox="0 0 20 20" fill="none" xmlns="http://www.w3.org/2000/svg">
<path fill-rule="evenodd" clip-rule="evenodd" d="M0 10.0001C0 4.47727 4.47715 0.00012207 10 0.00012207C12.6522 0.00012207 15.1957 1.05369 17.0711 2.92905C18.9464 4.80442 20 7.34796 20 10.0001C20 15.523 15.5228 20.0001 10 20.0001C4.47715 20.0001 0 15.523 0 10.0001ZM8.72988 13.35L14.3499 7.73003C14.534 7.53688 14.534 7.23318 14.3499 7.04003L13.8199 6.51003C13.6255 6.31946 13.3143 6.31946 13.1199 6.51003L8.37988 11.25L6.87988 9.76003C6.78915 9.66336 6.66247 9.60851 6.52988 9.60851C6.39729 9.60851 6.27061 9.66336 6.17988 9.76003L5.64988 10.29C5.55522 10.3839 5.50198 10.5117 5.50198 10.645C5.50198 10.7784 5.55522 10.9061 5.64988 11L8.02988 13.35C8.12061 13.4467 8.2473 13.5016 8.37988 13.5016C8.51247 13.5016 8.63915 13.4467 8.72988 13.35Z" fill="#FF9155"/>
</svg>
