<svg width="20" height="20" viewBox="0 0 20 20" fill="none" xmlns="http://www.w3.org/2000/svg">
<path fill-rule="evenodd" clip-rule="evenodd" d="M0 10C0 4.47715 4.47715 0 10 0C12.6522 0 15.1957 1.05357 17.0711 2.92893C18.9464 4.8043 20 7.34783 20 10C20 15.5228 15.5228 20 10 20C4.47715 20 0 15.5228 0 10ZM8.72997 13.3499L14.35 7.72987C14.5341 7.53672 14.5341 7.23302 14.35 7.03987L13.82 6.50987C13.6256 6.3193 13.3144 6.3193 13.12 6.50987L8.37997 11.2499L6.87997 9.75987C6.78924 9.66319 6.66256 9.60835 6.52997 9.60835C6.39739 9.60835 6.27071 9.66319 6.17997 9.75987L5.64997 10.2899C5.55532 10.3838 5.50208 10.5116 5.50208 10.6449C5.50208 10.7782 5.55532 10.906 5.64997 10.9999L8.02997 13.3499C8.12071 13.4465 8.24739 13.5014 8.37997 13.5014C8.51256 13.5014 8.63924 13.4465 8.72997 13.3499Z" fill="#519DF0"/>
</svg>
