<svg width="24" height="24" viewBox="0 0 24 24" fill="none" xmlns="http://www.w3.org/2000/svg">
<path d="M22.5938 10.5283V11.6855H21.0127V8.33841L16.2686 8.34146V6.71387H12.7031V5.44824H16.25V4.04199H7.85156V5.44824H11.2969V6.71387H7.89356V8.34188H6.22228V10.3284H2.70994V13.213H1.40625V10.3379H0V18.0459H1.40625V14.6192H2.70994V18.0094H6.75131L8.51634 19.958H21.0127V16.6523H22.5938V17.8096H24V10.5283H22.5938ZM4.11619 11.7346H6.22228V16.6032H4.11619V11.7346ZM19.6064 15.2461V18.5518H9.13992L7.62853 16.8832V9.74813H9.29981V8.12012H14.8623V9.7486L19.6064 9.74555V13.0918H22.5938V15.2461H19.6064V15.2461Z" fill="#519DF0"/>
</svg>
