<svg width="18" height="16" viewBox="0 0 18 16" fill="none" xmlns="http://www.w3.org/2000/svg">
<path d="M17.0917 6.925L10.9084 0.741667C10.7532 0.587713 10.5437 0.500921 10.3251 0.5H7.67508C7.45646 0.500921 7.24697 0.587713 7.09175 0.741667L0.908415 6.925C0.754461 7.08022 0.667669 7.28972 0.666748 7.50833V8.41667C0.666748 8.64678 0.853296 8.83333 1.08341 8.83333H2.33341V14.6667C2.33341 15.1269 2.70651 15.5 3.16675 15.5H5.66675C6.12699 15.5 6.50008 15.1269 6.50008 14.6667V10.0833C6.50008 9.85321 6.68663 9.66667 6.91675 9.66667H11.0834C11.3135 9.66667 11.5001 9.85321 11.5001 10.0833V14.6667C11.5001 15.1269 11.8732 15.5 12.3334 15.5H14.8334C15.2937 15.5 15.6667 15.1269 15.6667 14.6667V8.83333H16.9167C17.1469 8.83333 17.3334 8.64678 17.3334 8.41667V7.50833C17.3325 7.28972 17.2457 7.08022 17.0917 6.925Z" fill="black"/>
</svg>
