<svg xmlns="http://www.w3.org/2000/svg" xmlns:xlink="http://www.w3.org/1999/xlink">
    <symbol id="icon-view-list">
        <rect width="4" height="4" fill="inherit"/>
        <rect y="6" width="4" height="4" fill="inherit"/>
        <rect y="12" width="4" height="4" fill="inherit"/>
        <rect x="6" y="1" width="10" height="2" fill="inherit"/>
        <rect x="6" y="7" width="10" height="2" fill="inherit"/>
        <rect x="6" y="13" width="10" height="2" fill="inherit"/>
    </symbol> 
    <symbol id="icon-view-tale">
        <rect width="4" height="4" fill="inherit"/>
        <rect y="6" width="4" height="4" fill="inherit"/>
        <rect y="12" width="4" height="4" fill="inherit"/>
        <rect x="6" width="4" height="4" fill="inherit"/>
        <rect x="6" y="6" width="4" height="4" fill="inherit"/>
        <rect x="6" y="12" width="4" height="4" fill="inherit"/>
        <rect x="12" width="4" height="4" fill="inherit"/>
        <rect x="12" y="6" width="4" height="4" fill="inherit"/>
        <rect x="12" y="12" width="4" height="4" fill="inherit"/>
    </symbol>  
    <symbol id="trashcan" viewBox="0 0 16 18">
        <path d="M6.33333 0.666656L5.5 1.49999H0.5V3.16666H1.42448L2.91862 15.862C3.01633 16.695 3.735 17.3333 4.57389 17.3333H11.4261C12.265 17.3333 12.9837 16.695 13.0814 15.862L14.5755 3.16666H15.5V1.49999H13.8333H10.5L9.66667 0.666656H6.33333ZM3.10254 3.16666H3.83333H12.8975L11.4261 15.6667H4.57389L3.10254 3.16666ZM5.5 4.83332V13.1667C5.5 13.6267 5.87333 14 6.33333 14H7.16667V4.83332H5.5ZM8.83333 4.83332V14H9.66667C10.1267 14 10.5 13.6267 10.5 13.1667V4.83332H8.83333Z" fill="inherit"/>
    </symbol>                
</svg>