<svg width="24" height="24" viewBox="0 0 24 24" fill="none" xmlns="http://www.w3.org/2000/svg">
<path d="M22.6696 15.9443H21.7634V14.2764V9.46091C21.7634 8.6773 21.2545 7.98999 20.5312 7.72733C20.5312 7.70544 20.5312 7.68355 20.5312 7.66166V6.68981C20.5357 5.75735 19.7589 5 18.8125 5H18.0045H17.1964C16.2455 5 15.4732 5.75735 15.4732 6.68981V7.66166C15.4732 7.68355 15.4732 7.70544 15.4732 7.72733C14.7455 7.98999 14.2411 8.6773 14.2411 9.46091V14.2764V15.9443H13.3304C13.1473 15.9443 13 16.0888 13 16.2683V17.7261C13 18.4309 13.5804 19 14.2991 19H18H21.7009C22.4196 19 23 18.4309 23 17.7261V16.2683C23 16.0888 22.8527 15.9443 22.6696 15.9443ZM16.2723 6.68981C16.2723 6.19512 16.683 5.78799 17.192 5.78799H18H18.808C19.3125 5.78799 19.7277 6.19074 19.7277 6.68981V7.66166C19.7277 7.74046 19.7187 7.81926 19.6964 7.89368C19.692 7.90244 19.692 7.91119 19.6875 7.92433C19.5714 8.29206 19.2232 8.56348 18.808 8.56348H18H17.192C16.7768 8.56348 16.4286 8.29644 16.3125 7.92433C16.3125 7.91557 16.308 7.90244 16.3036 7.89368C16.2812 7.81926 16.2723 7.74046 16.2723 7.66166V6.68981ZM15.0446 9.46091C15.0446 9.42589 15.0446 9.38649 15.0491 9.35147C15.0893 8.97061 15.3393 8.64228 15.692 8.48906C15.9866 9.00125 16.5491 9.35147 17.192 9.35147H18H18.808C19.4509 9.35147 20.0134 9.00563 20.308 8.48906C20.6562 8.64228 20.9107 8.97061 20.9509 9.35147C20.9554 9.38649 20.9554 9.42589 20.9554 9.46091V15.94H17.9955H15.0446V9.46091ZM22.1964 17.7261C22.1964 17.9931 21.9732 18.212 21.7009 18.212H18H14.3036C14.0313 18.212 13.808 17.9931 13.808 17.7261V16.7323H18.0045H22.2009V17.7261H22.1964Z" fill="#519DF0" stroke="#519DF0" stroke-width="0.4"/>
<path d="M19.4479 20H18H16.5521C16.2454 20 16 20.2222 16 20.5C16 20.7778 16.2454 21 16.5521 21H18H19.4479C19.7546 21 20 20.7778 20 20.5C20 20.2278 19.7546 20 19.4479 20Z" fill="#519DF0" stroke="#519DF0" stroke-width="0.4"/>
<path d="M10.6696 15.9443H9.76339V14.2764V9.46091C9.76339 8.6773 9.25446 7.98999 8.53125 7.72733C8.53125 7.70544 8.53125 7.68355 8.53125 7.66166V6.68981C8.53571 5.75735 7.75893 5 6.8125 5H6.00446H5.19643C4.24554 5 3.47321 5.75735 3.47321 6.68981V7.66166C3.47321 7.68355 3.47321 7.70544 3.47321 7.72733C2.74554 7.98999 2.24107 8.6773 2.24107 9.46091V14.2764V15.9443H1.33036C1.14732 15.9443 1 16.0888 1 16.2683V17.7261C1 18.4309 1.58036 19 2.29911 19H6H9.70089C10.4196 19 11 18.4309 11 17.7261V16.2683C11 16.0888 10.8527 15.9443 10.6696 15.9443ZM4.27232 6.68981C4.27232 6.19512 4.68304 5.78799 5.19196 5.78799H6H6.80804C7.3125 5.78799 7.72768 6.19074 7.72768 6.68981V7.66166C7.72768 7.74046 7.71875 7.81926 7.69643 7.89368C7.69196 7.90244 7.69196 7.91119 7.6875 7.92433C7.57143 8.29206 7.22321 8.56348 6.80804 8.56348H6H5.19196C4.77679 8.56348 4.42857 8.29644 4.3125 7.92433C4.3125 7.91557 4.30804 7.90244 4.30357 7.89368C4.28125 7.81926 4.27232 7.74046 4.27232 7.66166V6.68981ZM3.04464 9.46091C3.04464 9.42589 3.04464 9.38649 3.04911 9.35147C3.08929 8.97061 3.33929 8.64228 3.69196 8.48906C3.98661 9.00125 4.54911 9.35147 5.19196 9.35147H6H6.80804C7.45089 9.35147 8.01339 9.00563 8.30804 8.48906C8.65625 8.64228 8.91071 8.97061 8.95089 9.35147C8.95536 9.38649 8.95536 9.42589 8.95536 9.46091V15.94H5.99554H3.04464V9.46091ZM10.1964 17.7261C10.1964 17.9931 9.97321 18.212 9.70089 18.212H6H2.30357C2.03125 18.212 1.80804 17.9931 1.80804 17.7261V16.7323H6.00446H10.2009V17.7261H10.1964Z" fill="#519DF0" stroke="#519DF0" stroke-width="0.4"/>
<path d="M7.44785 20H6H4.55215C4.2454 20 4 20.2222 4 20.5C4 20.7778 4.2454 21 4.55215 21H6H7.44785C7.7546 21 8 20.7778 8 20.5C8 20.2278 7.7546 20 7.44785 20Z" fill="#519DF0" stroke="#519DF0" stroke-width="0.4"/>
</svg>
