<svg width="150" height="72" viewBox="0 0 150 72" fill="none" xmlns="http://www.w3.org/2000/svg">
<g clip-path="url(#clip0_714_965)">
<g filter="url(#filter0_i_714_965)">
<path d="M93.5731 19.1196V65.7625C93.5731 66.7827 92.8709 67.6098 92.0037 67.6098H56.1877C55.3206 67.6098 54.6177 66.7827 54.6177 65.7625V19.1196H9.70024C8.4021 19.1196 7.66479 17.3714 8.44994 16.1551L17.6046 1.97302C18.0499 1.28317 18.7437 0.878052 19.48 0.878052H131.034C132.331 0.878052 133.069 2.62624 132.284 3.84256L123.129 18.0246C122.684 18.7145 121.99 19.1196 121.254 19.1196H93.5731Z" fill="#A0BBD4"/>
<path d="M93.5731 19.1196V65.7625C93.5731 66.7827 92.8709 67.6098 92.0037 67.6098H56.1877C55.3206 67.6098 54.6177 66.7827 54.6177 65.7625V19.1196H9.70024C8.4021 19.1196 7.66479 17.3714 8.44994 16.155L17.6046 1.97302C18.0499 1.28317 18.7437 0.878052 19.48 0.878052H131.034C132.331 0.878052 133.069 2.62624 132.284 3.84256L123.129 18.0246C122.684 18.7145 121.99 19.1196 121.254 19.1196H93.5731Z" stroke="white" stroke-width="2"/>
</g>
<g filter="url(#filter1_i_714_965)">
<path fill-rule="evenodd" clip-rule="evenodd" d="M0.746277 28.9331C0.746277 27.9129 1.44919 27.0859 2.31628 27.0859H43.5289C46.1302 27.0859 48.2389 29.567 48.2389 32.6276V43.5955C48.2389 45.636 46.8331 47.2901 45.0989 47.2901C46.8331 47.2901 48.2389 48.9442 48.2389 50.9846V62.068C48.2389 65.1286 46.1302 67.6097 43.5289 67.6097H2.31628C1.44919 67.6097 0.746277 66.7827 0.746277 65.7625V28.9331ZM34.1089 39.0929C34.1089 40.9421 32.8349 42.4411 31.2632 42.4411H18.0163C16.4447 42.4411 15.1707 40.9421 15.1707 39.0929C15.1707 37.2438 16.4447 35.7448 18.0163 35.7448H31.2632C32.8349 35.7448 34.1089 37.2438 34.1089 39.0929ZM31.2632 58.3736C32.8349 58.3736 34.1089 56.8745 34.1089 55.0254C34.1089 53.1763 32.8349 51.6773 31.2632 51.6773H18.0163C16.4447 51.6773 15.1707 53.1763 15.1707 55.0254C15.1707 56.8745 16.4447 58.3736 18.0163 58.3736H31.2632Z" fill="#A0BBD4"/>
<path d="M45.0989 46.4121C44.6867 46.4121 44.3526 46.8052 44.3526 47.2901C44.3526 47.775 44.6867 48.1682 45.0989 48.1682V46.4121ZM1.49254 65.7625V28.9331H0V65.7625H1.49254ZM33.3626 39.0929C33.3626 40.4571 32.4227 41.563 31.2632 41.563V43.3191C33.247 43.3191 34.8551 41.4269 34.8551 39.0929H33.3626ZM31.2632 36.6229C32.4227 36.6229 33.3626 37.7288 33.3626 39.0929H34.8551C34.8551 36.7589 33.247 34.8668 31.2632 34.8668V36.6229ZM33.3626 55.0254C33.3626 56.3896 32.4227 57.4955 31.2632 57.4955V59.2516C33.247 59.2516 34.8551 57.3595 34.8551 55.0254H33.3626ZM31.2632 52.5553C32.4227 52.5553 33.3626 53.6612 33.3626 55.0254H34.8551C34.8551 52.6913 33.247 50.7992 31.2632 50.7992V52.5553ZM47.4926 32.6276V43.5955H48.9851V32.6276H47.4926ZM47.4926 43.5955C47.4926 45.1511 46.4209 46.4121 45.0989 46.4121V48.1682C47.2452 48.1682 48.9851 46.1209 48.9851 43.5955H47.4926ZM43.5289 27.9639C45.718 27.9639 47.4926 30.0519 47.4926 32.6276H48.9851C48.9851 29.082 46.5423 26.2078 43.5289 26.2078V27.9639ZM47.4926 50.9846V62.068H48.9851V50.9846H47.4926ZM47.4926 62.068C47.4926 64.6437 45.718 66.7317 43.5289 66.7317V68.4878C46.5423 68.4878 48.9851 65.6136 48.9851 62.068H47.4926ZM45.0989 48.1682C46.4209 48.1682 47.4926 49.4291 47.4926 50.9846H48.9851C48.9851 48.4592 47.2452 46.4121 45.0989 46.4121V48.1682ZM31.2632 57.4955H18.0163V59.2516H31.2632V57.4955ZM18.0163 52.5553H31.2632V50.7992H18.0163V52.5553ZM31.2632 41.563H18.0163V43.3191H31.2632V41.563ZM18.0163 36.6229H31.2632V34.8668H18.0163V36.6229ZM2.31628 66.7317C1.86134 66.7317 1.49254 66.2978 1.49254 65.7625H0C0 67.2676 1.03703 68.4878 2.31628 68.4878V66.7317ZM2.31628 26.2078C1.03703 26.2078 0 27.4279 0 28.9331H1.49254C1.49254 28.3978 1.86134 27.9639 2.31628 27.9639V26.2078ZM2.31628 27.9639H43.5289V26.2078H2.31628V27.9639ZM43.5289 66.7317H2.31628V68.4878H43.5289V66.7317ZM15.9169 55.0254C15.9169 53.6612 16.8569 52.5553 18.0163 52.5553V50.7992C16.0325 50.7992 14.4244 52.6913 14.4244 55.0254H15.9169ZM14.4244 39.0929C14.4244 41.4269 16.0325 43.3191 18.0163 43.3191V41.563C16.8569 41.563 15.9169 40.4571 15.9169 39.0929H14.4244ZM15.9169 39.0929C15.9169 37.7288 16.8569 36.6229 18.0163 36.6229V34.8668C16.0325 34.8668 14.4244 36.7589 14.4244 39.0929H15.9169ZM14.4244 55.0254C14.4244 57.3595 16.0325 59.2516 18.0163 59.2516V57.4955C16.8569 57.4955 15.9169 56.3896 15.9169 55.0254H14.4244Z" fill="white"/>
</g>
<g filter="url(#filter2_i_714_965)">
<path d="M100.736 63.9152V30.6649C100.736 28.6245 102.142 26.9704 103.876 26.9704H144.107C144.975 26.9704 145.678 27.7974 145.678 28.8176V36.7839C145.678 37.8041 144.975 38.6311 144.107 38.6311H123.109H118.455C117.154 38.6311 116.1 39.8716 116.1 41.402V53.1782C116.1 54.7085 117.154 55.9491 118.455 55.9491H123.109H144.107C144.975 55.9491 145.678 56.7761 145.678 57.7963V65.7625C145.678 66.7827 144.975 67.6097 144.107 67.6097H103.876C102.142 67.6097 100.736 65.9557 100.736 63.9152Z" fill="#A0BBD4"/>
<path d="M100.736 63.9152V30.6649C100.736 28.6245 102.142 26.9704 103.876 26.9704H144.107C144.975 26.9704 145.678 27.7974 145.678 28.8176V36.7839C145.678 37.8041 144.975 38.6311 144.107 38.6311H123.109H117.455C116.154 38.6311 115.1 39.8716 115.1 41.402V53.1782C115.1 54.7085 116.154 55.9491 117.455 55.9491H123.109H144.107C144.975 55.9491 145.678 56.7761 145.678 57.7963V65.7625C145.678 66.7827 144.975 67.6097 144.107 67.6097H103.876C102.142 67.6097 100.736 65.9557 100.736 63.9152Z" stroke="white" stroke-width="2" stroke-linejoin="round"/>
</g>
</g>
<defs>
<filter id="filter0_i_714_965" x="7.1275" y="-0.121948" width="128.478" height="70.7317" filterUnits="userSpaceOnUse" color-interpolation-filters="sRGB">
<feFlood flood-opacity="0" result="BackgroundImageFix"/>
<feBlend mode="normal" in="SourceGraphic" in2="BackgroundImageFix" result="shape"/>
<feColorMatrix in="SourceAlpha" type="matrix" values="0 0 0 0 0 0 0 0 0 0 0 0 0 0 0 0 0 0 127 0" result="hardAlpha"/>
<feOffset dx="2" dy="2"/>
<feGaussianBlur stdDeviation="1"/>
<feComposite in2="hardAlpha" operator="arithmetic" k2="-1" k3="1"/>
<feColorMatrix type="matrix" values="0 0 0 0 0 0 0 0 0 0 0 0 0 0 0 0 0 0 0.16 0"/>
<feBlend mode="normal" in2="shape" result="effect1_innerShadow_714_965"/>
</filter>
<filter id="filter1_i_714_965" x="0" y="26.2078" width="50.9851" height="44.28" filterUnits="userSpaceOnUse" color-interpolation-filters="sRGB">
<feFlood flood-opacity="0" result="BackgroundImageFix"/>
<feBlend mode="normal" in="SourceGraphic" in2="BackgroundImageFix" result="shape"/>
<feColorMatrix in="SourceAlpha" type="matrix" values="0 0 0 0 0 0 0 0 0 0 0 0 0 0 0 0 0 0 127 0" result="hardAlpha"/>
<feOffset dx="2" dy="2"/>
<feGaussianBlur stdDeviation="1"/>
<feComposite in2="hardAlpha" operator="arithmetic" k2="-1" k3="1"/>
<feColorMatrix type="matrix" values="0 0 0 0 0 0 0 0 0 0 0 0 0 0 0 0 0 0 0.15 0"/>
<feBlend mode="normal" in2="shape" result="effect1_innerShadow_714_965"/>
</filter>
<filter id="filter2_i_714_965" x="99.7358" y="25.9704" width="48.9418" height="44.6393" filterUnits="userSpaceOnUse" color-interpolation-filters="sRGB">
<feFlood flood-opacity="0" result="BackgroundImageFix"/>
<feBlend mode="normal" in="SourceGraphic" in2="BackgroundImageFix" result="shape"/>
<feColorMatrix in="SourceAlpha" type="matrix" values="0 0 0 0 0 0 0 0 0 0 0 0 0 0 0 0 0 0 127 0" result="hardAlpha"/>
<feOffset dx="2" dy="2"/>
<feGaussianBlur stdDeviation="1"/>
<feComposite in2="hardAlpha" operator="arithmetic" k2="-1" k3="1"/>
<feColorMatrix type="matrix" values="0 0 0 0 0 0 0 0 0 0 0 0 0 0 0 0 0 0 0.15 0"/>
<feBlend mode="normal" in2="shape" result="effect1_innerShadow_714_965"/>
</filter>
<clipPath id="clip0_714_965">
<rect width="150" height="72" fill="white"/>
</clipPath>
</defs>
</svg>
