<svg width="18" height="14" viewBox="0 0 18 14" fill="none" xmlns="http://www.w3.org/2000/svg">
<path fill-rule="evenodd" clip-rule="evenodd" d="M15.6667 0.333252H2.33341C1.41294 0.333252 0.666748 1.07944 0.666748 1.99992V11.9999C0.666748 12.9204 1.41294 13.6666 2.33341 13.6666H15.6667C16.5872 13.6666 17.3334 12.9204 17.3334 11.9999V1.99992C17.3334 1.07944 16.5872 0.333252 15.6667 0.333252ZM15.6667 1.99992V4.41658L9.54175 8.70825C9.21602 8.93432 8.78414 8.93432 8.45841 8.70825L2.33341 4.41658V1.99992H15.6667ZM2.33341 6.16659V11.9999H15.6667V6.16659L10.3751 9.86659C9.54929 10.4438 8.45087 10.4438 7.62508 9.86659L2.33341 6.16659Z" fill="black"/>
</svg>
