<svg width="48" height="48" viewBox="0 0 48 48" fill="none" xmlns="http://www.w3.org/2000/svg">
<path d="M24 48C10.7659 48 0 37.2341 0 24C0 10.7659 10.7659 0 24 0C37.2341 0 48 10.7659 48 24C48 37.2341 37.2341 48 24 48ZM24 3C12.42 3 3 12.42 3 24C3 35.58 12.42 45 24 45C35.58 45 45 35.58 45 24C45 12.42 35.58 3 24 3Z" fill="#519DF0"/>
<path d="M34.5 25.5H13.5C12.672 25.5 12 24.828 12 24C12 23.172 12.672 22.5 13.5 22.5H34.5C35.328 22.5 36 23.172 36 24C36 24.828 35.328 25.5 34.5 25.5Z" fill="#519DF0"/>
<path d="M24 36C23.172 36 22.5 35.328 22.5 34.5V13.5C22.5 12.672 23.172 12 24 12C24.828 12 25.5 12.672 25.5 13.5V34.5C25.5 35.328 24.828 36 24 36Z" fill="#519DF0"/>
</svg>
