<svg width="24" height="24" viewBox="0 0 24 24" fill="none" xmlns="http://www.w3.org/2000/svg">
<g clip-path="url(#clip0_803_2883)">
<path d="M20.4977 9.1402C18.2279 6.8704 15.21 5.62036 12 5.62036C8.79 5.62036 5.77214 6.8704 3.5023 9.1402C1.23251 11.41 -0.0175327 14.4279 0.000185812 17.6379V18.3667H4.98676V16.9091H1.46496C1.55983 15.5232 1.92367 14.2102 2.50397 13.0213L4.29752 14.0569L5.02633 12.7946L3.23221 11.7587C3.99256 10.6285 4.9653 9.65258 6.093 8.88881L7.1322 10.6887L8.39452 9.95989L7.35335 8.15654C8.55005 7.56771 9.87369 7.19904 11.2712 7.10332V9.18904H12.7288V7.10332C14.1263 7.19904 15.4499 7.56766 16.6466 8.15654L15.6055 9.95989L16.8678 10.6887L17.907 8.88881C19.0347 9.65263 20.0075 10.6285 20.7678 11.7588L18.9737 12.7946L19.7025 14.0569L21.4961 13.0214C22.0764 14.2103 22.4402 15.5233 22.5351 16.9092H18.9993V18.3668L23.9998 18.3683V17.6395C24.0175 14.4279 22.7675 11.41 20.4977 9.1402Z" fill="#519DF0"/>
<path d="M15.4215 12.1089L11.2732 16.6745L11.2612 18.3694L12.7188 18.3796L12.7268 17.2421L16.5003 13.0891L15.4215 12.1089Z" fill="#519DF0"/>
</g>
<defs>
<clipPath id="clip0_803_2883">
<rect width="24" height="24" fill="white"/>
</clipPath>
</defs>
</svg>
