<svg width="24" height="24" viewBox="0 0 24 24" fill="none" xmlns="http://www.w3.org/2000/svg">
<g clip-path="url(#clip0_803_2755)">
<path d="M20.2264 3.73036C19.13 1.35042 17.6058 0.0467967 15.9411 0.0467967L8.54726 0.0334262C8.40019 0.0133705 8.24643 0 8.09267 0C6.42136 0 4.89044 1.31699 3.78738 3.71031C2.75785 5.93649 2.19629 8.87799 2.19629 12C2.19629 15.122 2.76453 18.0635 3.78738 20.2897C4.89044 22.683 6.42136 24 8.09267 24C8.24643 24 8.3935 23.9866 8.54726 23.9666L15.8877 23.9532C17.559 23.9532 19.0899 22.6563 20.1996 20.2763C21.2358 18.0568 21.8041 15.1153 21.8041 12C21.8041 8.87799 21.2425 5.94318 20.2264 3.73036ZM8.29991 22.6496H8.26648C8.22637 22.6496 8.18626 22.6563 8.14615 22.663C8.12609 22.663 8.10604 22.663 8.08598 22.663C6.9896 22.663 5.86648 21.5933 5.00409 19.7348C4.05478 17.6825 3.53334 14.9348 3.53334 12C3.53334 9.06518 4.05478 6.32423 5.00409 4.26518C5.8598 2.4 6.9896 1.33705 8.09267 1.33705C9.19573 1.33705 10.3255 2.40669 11.1812 4.26518C12.1305 6.31755 12.652 9.06518 12.652 12C12.652 14.9348 12.1305 17.6758 11.1812 19.7348C10.379 21.4797 9.33612 22.5292 8.29991 22.6496ZM14.1963 19.2802C13.9824 19.4674 13.735 19.6747 13.5746 19.9688C13.4007 20.283 13.3473 20.6173 13.2938 20.9114C13.267 21.0652 13.2269 21.2992 13.1868 21.3526C13.1066 21.4529 12.8726 21.5198 12.652 21.5866C12.4046 21.6468 12.1707 21.7404 11.95 21.8607C11.676 22.0279 11.4888 22.3019 11.315 22.5493C11.2949 22.5827 11.2682 22.6162 11.2481 22.6429H10.8804C11.442 22.0412 11.9567 21.2591 12.4046 20.2964C13.4342 18.0702 13.9957 15.1287 13.9957 12.0067C13.9957 8.88468 13.4275 5.94318 12.4046 3.71699C11.9567 2.74763 11.442 1.95877 10.8737 1.3571L12.0904 1.36379C12.1573 1.39721 12.2308 1.43733 12.3111 1.47744C12.6186 1.64457 13.0063 1.8585 13.1868 2.07242C13.2336 2.13259 13.267 2.35989 13.2938 2.51365C13.3406 2.8078 13.4007 3.14206 13.5746 3.45627C13.735 3.75042 13.9824 3.95766 14.1963 4.14485C14.35 4.27855 14.5306 4.43231 14.5773 4.54596C14.6108 4.62618 14.584 4.85348 14.564 5.02061C14.5306 5.32813 14.4971 5.68245 14.5974 6.04345C14.6977 6.3844 14.9049 6.6585 15.0854 6.89248C15.2058 7.05292 15.3461 7.22674 15.3662 7.34039C15.3863 7.4273 15.3261 7.64123 15.2793 7.81504C15.1991 8.11588 15.1055 8.46351 15.1523 8.83788C15.1991 9.19889 15.3729 9.49972 15.52 9.76713C15.6202 9.94095 15.7272 10.1281 15.7339 10.2418C15.7406 10.3354 15.6537 10.5426 15.5868 10.7097C15.4665 10.9972 15.3261 11.3315 15.3261 11.7125C15.3261 12.0936 15.4665 12.4212 15.5868 12.7153C15.6537 12.8825 15.7406 13.0897 15.7339 13.1833C15.7272 13.2903 15.6136 13.4841 15.52 13.6579C15.3662 13.9253 15.1924 14.2262 15.1523 14.5872C15.1055 14.9682 15.1991 15.3092 15.2793 15.61C15.3261 15.7838 15.3863 15.9978 15.3662 16.0847C15.3461 16.1983 15.2058 16.3721 15.0854 16.5326C14.8982 16.7666 14.691 17.0407 14.5974 17.3816C14.4971 17.7493 14.5306 18.0969 14.564 18.4045C14.584 18.5716 14.6041 18.7989 14.5773 18.8791C14.5306 18.9928 14.3567 19.1465 14.1963 19.2802ZM15.6136 20.9114C15.5868 21.0652 15.5467 21.2992 15.5066 21.3526C15.4264 21.4529 15.1924 21.5198 14.9718 21.5866C14.798 21.6334 14.6308 21.6936 14.4637 21.7604C14.5306 21.5532 14.584 21.346 14.6108 21.132C14.6442 20.9315 14.6776 20.7309 14.7445 20.6106C14.7846 20.5304 14.9317 20.41 15.0654 20.2964C15.3261 20.0691 15.6537 19.795 15.8208 19.3671C15.9679 18.9861 15.9278 18.605 15.8943 18.2641C15.8743 18.0635 15.8542 17.8563 15.8877 17.7426C15.9144 17.649 16.0347 17.4953 16.1484 17.3549C16.3489 17.0942 16.603 16.7666 16.6899 16.3454C16.7701 15.9443 16.6698 15.5833 16.5829 15.2557C16.5294 15.0618 16.476 14.868 16.4893 14.7476C16.5027 14.6474 16.603 14.4735 16.6966 14.3131C16.857 14.0323 17.0576 13.678 17.0843 13.2568C17.1111 12.849 16.964 12.5014 16.8303 12.1939C16.7567 12.0134 16.6765 11.8195 16.6765 11.7125C16.6765 11.6056 16.7567 11.4117 16.8303 11.2312C16.9573 10.9237 17.1044 10.5694 17.0843 10.1682C17.0576 9.74708 16.857 9.39276 16.6966 9.11198C16.6097 8.95822 16.5027 8.77772 16.4893 8.67744C16.476 8.56379 16.5294 8.36323 16.5829 8.16936C16.6698 7.84847 16.7701 7.48078 16.6899 7.07967C16.603 6.6585 16.3556 6.33092 16.1484 6.0702C16.0414 5.92981 15.9144 5.76936 15.8877 5.68245C15.8542 5.56212 15.8743 5.36156 15.8943 5.161C15.9278 4.82674 15.9679 4.439 15.8208 4.06462C15.6537 3.63677 15.3261 3.36267 15.0654 3.13538C14.9383 3.02841 14.7913 2.90139 14.7445 2.82117C14.6776 2.70084 14.6442 2.50028 14.6108 2.29972C14.5573 1.99889 14.5038 1.66462 14.3166 1.37047H14.4236C14.4904 1.41058 14.5573 1.44401 14.6308 1.48412C14.9383 1.65125 15.3261 1.86518 15.5066 2.07911C15.5534 2.13928 15.5868 2.36657 15.6136 2.52033C15.6604 2.81448 15.7205 3.14875 15.8943 3.46295C16.0548 3.7571 16.3021 3.96435 16.5161 4.15153C16.6698 4.28524 16.8503 4.439 16.8971 4.54596C16.9305 4.62618 16.9038 4.85348 16.8838 5.02061C16.857 5.32145 16.8169 5.67577 16.9172 6.04345C17.0175 6.3844 17.2247 6.6585 17.4052 6.89248C17.5255 7.05292 17.6659 7.22674 17.686 7.34039C17.706 7.4273 17.6459 7.64123 17.5991 7.81504C17.5188 8.11588 17.4253 8.46351 17.4721 8.83788C17.5189 9.19889 17.6927 9.49972 17.8397 9.76713C17.94 9.94095 18.047 10.1281 18.0537 10.2418C18.0604 10.3354 17.9734 10.5426 17.9066 10.7097C17.7863 10.9972 17.6459 11.3315 17.6459 11.7125C17.6459 12.0936 17.7863 12.4212 17.9066 12.7153C17.9734 12.8825 18.0604 13.0897 18.0537 13.1833C18.047 13.2903 17.9333 13.4841 17.8397 13.6579C17.686 13.9253 17.5122 14.2262 17.4721 14.5872C17.4253 14.9682 17.5188 15.3092 17.5991 15.61C17.6459 15.7838 17.706 15.9978 17.686 16.0847C17.6659 16.1983 17.5255 16.3721 17.4052 16.5326C17.218 16.7666 17.0108 17.0407 16.9172 17.3816C16.8169 17.7493 16.8503 18.0969 16.8838 18.4045C16.9038 18.5716 16.9239 18.7989 16.8971 18.8791C16.8503 18.9928 16.6765 19.1465 16.5161 19.2802C16.3021 19.4674 16.0548 19.6747 15.8943 19.9688C15.7205 20.283 15.667 20.6173 15.6136 20.9114ZM18.9896 19.7148C18.1539 21.4997 17.0709 22.556 16.0013 22.6228C16.2085 22.5226 16.389 22.3822 16.5361 22.2084C16.8102 21.8808 16.8771 21.4797 16.9372 21.132C16.9707 20.9315 17.0041 20.7309 17.0709 20.6106C17.1111 20.5304 17.2581 20.41 17.3918 20.2964C17.6526 20.0691 17.9801 19.795 18.1473 19.3671C18.2943 18.9861 18.2542 18.605 18.2208 18.2641C18.2007 18.0635 18.1807 17.8563 18.2141 17.7426C18.2409 17.649 18.3612 17.4953 18.4748 17.3549C18.6754 17.0942 18.9294 16.7666 19.0163 16.3454C19.0966 15.9443 18.9963 15.5833 18.9094 15.2557C18.8559 15.0618 18.8024 14.868 18.8158 14.7476C18.8292 14.6474 18.9294 14.4735 19.023 14.3131C19.1835 14.0323 19.384 13.678 19.4108 13.2568C19.4375 12.849 19.2904 12.5014 19.1567 12.1939C19.0832 12.0134 19.003 11.8195 19.003 11.7125C19.003 11.6056 19.0832 11.4117 19.1567 11.2312C19.2838 10.9237 19.4308 10.5694 19.4108 10.1682C19.384 9.74708 19.1835 9.39276 19.023 9.11198C18.9361 8.95822 18.8292 8.77772 18.8158 8.67744C18.8024 8.56379 18.8559 8.36323 18.9094 8.16936C18.9963 7.84847 19.0966 7.48078 19.0163 7.07967C18.9294 6.6585 18.6821 6.33092 18.4748 6.0702C18.3679 5.92981 18.2409 5.76936 18.2141 5.68245C18.1807 5.56212 18.2007 5.36156 18.2208 5.161C18.2542 4.82674 18.2943 4.439 18.1473 4.05794C17.9801 3.63008 17.6526 3.35599 17.3918 3.12869C17.2648 3.02173 17.1177 2.89471 17.0709 2.81448C17.0041 2.69415 16.9707 2.49359 16.9372 2.29304C16.9038 2.039 16.8436 1.79164 16.75 1.55766C17.579 1.93872 18.3746 2.88802 19.0163 4.28524C19.9523 6.32423 20.467 9.06518 20.467 12C20.467 14.9281 19.9456 17.6624 18.9896 19.7148Z" fill="#519DF0"/>
<path d="M8.09273 5.93652C6.34788 5.93652 5.23145 8.31647 5.23145 12C5.23145 15.6836 6.35457 18.0635 8.09941 18.0635C9.84426 18.0635 10.9607 15.6836 10.9607 12C10.9607 8.31647 9.83757 5.93652 8.09273 5.93652ZM9.08883 15.5699C8.95512 15.9176 8.58743 16.7198 8.09941 16.7198C7.61139 16.7198 7.23702 15.9176 7.10331 15.5699C6.75568 14.6741 6.56849 13.4039 6.56849 12C6.56849 10.5961 6.76236 9.32594 7.11 8.43011C7.2437 8.08248 7.61139 7.28025 8.09941 7.28025C8.58743 7.28025 8.95512 8.08917 9.08883 8.43011C9.43646 9.32594 9.63033 10.5961 9.63033 12C9.63033 13.4039 9.43646 14.6741 9.08883 15.5699Z" fill="#519DF0"/>
</g>
<defs>
<clipPath id="clip0_803_2755">
<rect width="24" height="24" fill="white"/>
</clipPath>
</defs>
</svg>
