<svg width="27" height="18" viewBox="0 0 27 18" fill="none" xmlns="http://www.w3.org/2000/svg">
<path d="M26.9997 0.000671387H0V18.0005H26.9997V0.000671387Z" fill="#F0F0F0"/>
<path d="M15.1874 0.000442505H11.8124V7.31274H0V10.6877H11.8124V18H15.1874V10.6877H26.9997V7.31274H15.1874V0.000442505Z" fill="#D80027"/>
<path d="M20.7661 12.1307L27.0001 15.594V12.1307H20.7661Z" fill="#0052B4"/>
<path d="M16.4349 12.1308L27 18.0002V16.3405L19.4225 12.1308H16.4349Z" fill="#0052B4"/>
<path d="M24.1855 18.0001L16.4346 13.6936V18.0001H24.1855Z" fill="#0052B4"/>
<path d="M16.4346 12.1307L26.9997 18.0001V16.3404L19.4222 12.1307H16.4346Z" fill="#F0F0F0"/>
<path d="M16.4346 12.1307L26.9997 18.0001V16.3404L19.4222 12.1307H16.4346Z" fill="#D80027"/>
<path d="M4.76403 12.1305L0 14.7771V12.1305H4.76403Z" fill="#0052B4"/>
<path d="M10.5651 12.8767V17.9998H1.34424L10.5651 12.8767Z" fill="#0052B4"/>
<path d="M7.57749 12.1307L0 16.3404V18.0001L10.5651 12.1307H7.57749Z" fill="#D80027"/>
<path d="M6.23393 5.86986L0 2.40656V5.86986H6.23393Z" fill="#0052B4"/>
<path d="M10.5654 5.86985L0.000320435 0.000442505V1.66017L7.57781 5.86985H10.5654Z" fill="#0052B4"/>
<path d="M2.81386 0.000442505L10.5648 4.30684V0.000442505H2.81386Z" fill="#0052B4"/>
<path d="M10.5651 5.86985L0 0.000442505V1.66017L7.57749 5.86985H10.5651Z" fill="#F0F0F0"/>
<path d="M10.5651 5.86985L0 0.000442505V1.66017L7.57749 5.86985H10.5651Z" fill="#D80027"/>
<path d="M22.2353 5.86992L26.9993 3.22324V5.86992H22.2353Z" fill="#0052B4"/>
<path d="M16.4345 5.12352V0.000442505H25.6554L16.4345 5.12352Z" fill="#0052B4"/>
<path d="M19.4221 5.86985L26.9996 1.66017V0.000442505L16.4345 5.86985H19.4221Z" fill="#D80027"/>
</svg>
