<svg width="3" height="6" viewBox="0 0 3 6" fill="none" xmlns="http://www.w3.org/2000/svg">
<path d="M2.36417 0.103477C2.42048 0.0372508 2.49714 1.99857e-07 2.5771 2.06848e-07C2.65707 2.13839e-07 2.73372 0.0372509 2.79004 0.103477L2.91 0.243405C2.96857 0.309224 3.00115 0.400415 2.99997 0.495277L2.99997 5.50472C3.00115 5.59958 2.96857 5.69078 2.91 5.75659L2.79003 5.89652C2.73372 5.96275 2.65707 6 2.5771 6C2.49714 6 2.42048 5.96275 2.36417 5.89652L0.0908825 3.24487C0.0328944 3.18139 -2.48922e-07 3.09276 -2.40812e-07 3C-2.32702e-07 2.90724 0.0328944 2.81861 0.0908825 2.75512L2.36417 0.103477Z" fill="black"/>
</svg>
