<svg width="3" height="6" viewBox="0 0 3 6" fill="none" xmlns="http://www.w3.org/2000/svg">
<path d="M0.635831 5.89652C0.579519 5.96275 0.502864 6 0.422898 6C0.342932 6 0.266277 5.96275 0.209965 5.89652L0.0900027 5.75659C0.0314261 5.69078 -0.00114837 5.59958 3.09444e-05 5.50472V0.495277C-0.00114837 0.400415 0.0314261 0.309225 0.0900027 0.243405L0.209965 0.103477C0.266277 0.037251 0.342932 0 0.422898 0C0.502864 0 0.579519 0.037251 0.635831 0.103477L2.90912 2.75512C2.96711 2.81861 3 2.90724 3 3C3 3.09276 2.96711 3.18139 2.90912 3.24488L0.635831 5.89652Z" fill="black"/>
</svg>
