<svg width="24" height="24" viewBox="0 0 24 24" fill="none" xmlns="http://www.w3.org/2000/svg">
<path d="M17.3938 14.0988L17.3849 14.1658C15.212 13.1877 14.9847 13.0574 14.7041 13.4375C14.5094 13.7008 13.9422 14.2978 13.7713 14.4745C13.5984 14.6485 13.4264 14.6619 13.133 14.5415C12.8365 14.4076 11.8849 14.1265 10.7585 13.2162C9.88099 12.5068 9.29206 11.6367 9.11815 11.3689C8.82862 10.9174 9.43435 10.8531 9.98573 9.91072C10.0845 9.72332 10.0341 9.57607 9.96103 9.4431C9.88692 9.30924 9.297 7.99739 9.04996 7.47443C8.81281 6.95326 8.56874 7.0193 8.38593 7.0193C7.81677 6.97468 7.40076 6.98182 7.03416 7.32629C5.43931 8.90943 5.84148 10.5426 7.2061 12.2792C9.88791 15.449 11.3168 16.0327 13.9294 16.843C14.6349 17.0456 15.2782 17.017 15.7871 16.951C16.3543 16.8698 17.5331 16.3075 17.7792 15.6784C18.0312 15.0492 18.0312 14.5272 17.957 14.4067C17.8839 14.2862 17.6902 14.2193 17.3938 14.0988Z" fill="#F15427"/>
<path d="M19.81 4.16192C12.7618 -2.65154 1.09717 2.29012 1.09258 11.9021C1.09258 13.8234 1.59583 15.697 2.55467 17.3516L1 23L6.80708 21.4857C14.0533 25.3998 22.9963 20.2024 23 11.9076C23 8.99634 21.8633 6.25647 19.7962 4.19767L19.81 4.16192ZM21.1685 11.8774C21.163 18.8742 13.4823 23.2438 7.4075 19.6726L7.0775 19.4764L3.64 20.3701L4.56125 17.0289L4.34217 16.6852C0.561833 10.6674 4.905 2.80253 12.066 2.80253C14.4988 2.80253 16.7823 3.75126 18.5019 5.46998C20.2207 7.17404 21.1685 9.45741 21.1685 11.8774Z" fill="#F15427"/>
</svg>
