<svg width="12" height="9" viewBox="0 0 12 9" fill="none" xmlns="http://www.w3.org/2000/svg">
<path d="M11.2339 1.83355L4.16722 8.90022C4.10463 8.96332 4.01943 8.99882 3.93055 8.99882C3.84167 8.99882 3.75647 8.96332 3.69389 8.90022L0.100553 5.30688C0.0374484 5.2443 0.00195312 5.1591 0.00195312 5.07022C0.00195312 4.98134 0.0374484 4.89614 0.100553 4.83355L0.567219 4.36688C0.629808 4.30378 0.715007 4.26828 0.803886 4.26828C0.892765 4.26828 0.977964 4.30378 1.04055 4.36688L3.92722 7.25355L10.2939 0.886884C10.4258 0.759029 10.6353 0.759029 10.7672 0.886884L11.2339 1.36022C11.297 1.42281 11.3325 1.50801 11.3325 1.59688C11.3325 1.68576 11.297 1.77096 11.2339 1.83355Z" fill="white"/>
</svg>
